<svg width="32" height="32" viewBox="0 0 32 32" fill="none" xmlns="http://www.w3.org/2000/svg">
<path d="M27.6153 10.8401L27.2865 11.5943C27.0459 12.1465 26.2822 12.1465 26.0415 11.5943L25.7129 10.8401C25.1269 9.49523 24.0714 8.42449 22.7543 7.83871L21.7414 7.38823C21.1938 7.14465 21.1938 6.34769 21.7414 6.1041L22.6977 5.67879C24.0486 5.07795 25.123 3.96758 25.6989 2.57705L26.0365 1.76198C26.2718 1.19392 27.0563 1.19392 27.2915 1.76198L27.6291 2.57705C28.2051 3.96758 29.2795 5.07795 30.6305 5.67879L31.5866 6.1041C32.1343 6.34769 32.1343 7.14465 31.5866 7.38823L30.5738 7.83871C29.2567 8.42449 28.2013 9.49523 27.6153 10.8401ZM26.6641 14.6693C27.5567 14.6693 28.4153 14.523 29.217 14.2533C29.2921 14.8258 29.3307 15.4097 29.3307 16.0026C29.3307 23.3663 23.3611 29.3359 15.9974 29.3359C13.7274 29.3359 11.5899 28.7687 9.71896 27.7682L2.66406 29.3359L4.23181 22.281C3.23132 20.4101 2.66406 18.2726 2.66406 16.0026C2.66406 8.63881 8.6336 2.66927 15.9974 2.66927C17.2049 2.66927 18.3749 2.82979 19.4873 3.13065C18.9602 4.1975 18.6641 5.39881 18.6641 6.66927C18.6641 11.0876 22.2458 14.6693 26.6641 14.6693ZM9.33073 16.0026C9.33073 19.6845 12.3155 22.6693 15.9974 22.6693C19.6793 22.6693 22.6641 19.6845 22.6641 16.0026H19.9974C19.9974 18.2118 18.2066 20.0026 15.9974 20.0026C13.7882 20.0026 11.9974 18.2118 11.9974 16.0026H9.33073Z" fill="#00E0BB"/>
</svg>
