<svg width="32" height="32" viewBox="0 0 32 32" fill="none" xmlns="http://www.w3.org/2000/svg">
<path d="M25.9583 11.5943L26.2871 10.8401C26.8731 9.49523 27.9286 8.42449 29.2457 7.83871L30.2585 7.38823C30.8062 7.14465 30.8062 6.34769 30.2585 6.1041L29.3023 5.67879C27.9514 5.07795 26.877 3.96758 26.301 2.57705L25.9634 1.76198C25.7282 1.19392 24.9437 1.19392 24.7083 1.76198L24.3707 2.57705C23.7949 3.96758 22.7205 5.07795 21.3695 5.67879L20.4133 6.1041C19.8657 6.34769 19.8657 7.14465 20.4133 7.38823L21.4262 7.83871C22.7433 8.42449 23.7987 9.49523 24.3847 10.8401L24.7134 11.5943C24.9541 12.1465 25.7178 12.1465 25.9583 11.5943ZM17.8518 8.45433C18.2173 9.03266 18.7169 9.46001 19.3507 9.73637L20.1045 10.065C20.8647 10.3964 21.4079 10.929 21.7342 11.6627L22.1846 12.6755C23.1546 14.8581 26.0405 15.2017 27.6146 13.7075L27.7359 13.8693C28.1182 14.3789 28.0865 15.0877 27.6603 15.5613L15.6603 28.8946C15.4075 29.1755 15.0473 29.3359 14.6693 29.3359C14.2913 29.3359 13.9311 29.1755 13.6782 28.8946L1.67822 15.5613C1.25206 15.0877 1.22039 14.3789 1.60261 13.8693L5.6026 8.53594C5.85442 8.20019 6.24961 8.00261 6.66927 8.00261H17.611C17.6787 8.15687 17.759 8.30745 17.8518 8.45433Z" fill="#00E0BB"/>
</svg>
