<svg width="32" height="32" viewBox="0 0 32 32" fill="none" xmlns="http://www.w3.org/2000/svg">
<path d="M17.3307 2.73511C24.0685 3.40407 29.3307 9.0888 29.3307 16.0026V17.3359H17.3307V25.3359C17.3307 26.8087 18.5247 28.0026 19.9973 28.0026C21.4701 28.0026 22.664 26.8087 22.664 25.3359V24.0026H25.3307V25.3359C25.3307 28.2814 22.9429 30.6693 19.9973 30.6693C17.0519 30.6693 14.664 28.2814 14.664 25.3359V17.3359H2.66406V16.0026C2.66406 9.0888 7.92629 3.40407 14.664 2.73511V2.66927C14.664 1.9329 15.2611 1.33594 15.9973 1.33594C16.7337 1.33594 17.3307 1.9329 17.3307 2.66927V2.73511Z" fill="#00E0BB"/>
</svg>
