<svg width="40" height="40" viewBox="0 0 40 40" fill="none" xmlns="http://www.w3.org/2000/svg">
<path d="M27.5 24.2969H19.0625C18.5879 24.2969 18.2031 24.6816 18.2031 25.1562C18.2031 25.6309 18.5879 26.0156 19.0625 26.0156H27.5C27.9746 26.0156 28.3594 25.6309 28.3594 25.1562C28.3594 24.6816 27.9746 24.2969 27.5 24.2969Z" fill="#1D2129"/>
<path d="M30.938 19.1406C31.4126 19.1406 31.7973 18.7559 31.7973 18.2812V11.4062C31.7973 10.9316 31.4126 10.5469 30.938 10.5469H9.0625C8.58789 10.5469 8.20312 10.9316 8.20312 11.4062V18.2812C8.20312 18.7559 8.58789 19.1406 9.0625 19.1406H9.84375V20.8594H9.0625C8.58789 20.8594 8.20312 21.2441 8.20312 21.7188V28.5938C8.20312 29.0684 8.58789 29.4531 9.0625 29.4531H30.938C31.4126 29.4531 31.7973 29.0684 31.7973 28.5938V21.7188C31.7973 21.2441 31.4126 20.8594 30.938 20.8594H30.1567V19.1406H30.938ZM9.92188 12.2656H30.0786V17.4219H9.92188V12.2656ZM30.0786 27.7345H9.92188V22.5782H30.0786V27.7345ZM28.438 20.8594H11.5626V19.1406H28.438V20.8594Z" fill="#1D2129"/>
<path d="M19.0625 15.7031H27.5C27.9746 15.7031 28.3594 15.3184 28.3594 14.8438C28.3594 14.3691 27.9746 13.9844 27.5 13.9844H19.0625C18.5879 13.9844 18.2031 14.3691 18.2031 14.8438C18.2031 15.3184 18.5879 15.7031 19.0625 15.7031Z" fill="#1D2129"/>
<path d="M13.2925 24.8272C13.0823 24.2726 12.2979 24.118 11.891 24.5483C11.3524 25.0801 11.7417 26.0207 12.4989 26.0155C13.0912 26.0325 13.5364 25.3684 13.2925 24.8272Z" fill="#0363E9"/>
<path d="M13.2924 14.5148C13.0827 13.9601 12.2974 13.8054 11.8909 14.2359C11.3525 14.7675 11.7416 15.7086 12.4988 15.7031C13.0916 15.7201 13.5356 15.0563 13.2924 14.5148Z" fill="#0363E9"/>
<path d="M38.0847 20C38.0847 15.1703 36.2039 10.6297 32.7887 7.21453C29.842 4.26773 26.0569 2.46461 21.9715 2.02516L22.5295 1.46711C22.8651 1.13148 22.8651 0.587344 22.5295 0.251719C22.1939 -0.0839062 21.6498 -0.0839062 21.3141 0.251719L19.6428 1.92305C14.9481 2.01422 10.5478 3.88453 7.21781 7.21453C3.80266 10.6297 1.92188 15.1703 1.92188 20C1.92188 24.8297 3.80266 29.3703 7.21781 32.7855C10.1646 35.7323 13.9497 37.5354 18.0351 37.9748L17.477 38.5329C17.1415 38.8685 17.1415 39.4127 17.477 39.7483C17.6448 39.9161 17.8648 40 18.0847 40C18.3046 40 18.5245 39.9161 18.6923 39.7483L20.3637 38.077C25.0585 37.9858 29.4587 36.1155 32.7888 32.7854C36.2039 29.3704 38.0847 24.8298 38.0847 20ZM20.3548 36.3582L18.6924 34.6958C18.3568 34.3602 17.8127 34.3602 17.477 34.6958C17.1414 35.0314 17.1415 35.5755 17.477 35.9112L17.7764 36.2105C9.80367 35.1207 3.64062 28.2671 3.64062 20C3.64062 11.0951 10.7911 3.82961 19.6517 3.6418L21.3141 5.30422C21.482 5.47203 21.7019 5.55594 21.9218 5.55594C22.1417 5.55594 22.3616 5.47203 22.5295 5.30422C22.8651 4.96859 22.865 4.42445 22.5295 4.08883L22.2301 3.78945C30.2029 4.8793 36.3659 11.733 36.3659 20C36.3659 28.9049 29.2155 36.1704 20.3548 36.3582Z" fill="#0363E9"/>
</svg>
