<svg width="40" height="40" viewBox="0 0 40 40" fill="none" xmlns="http://www.w3.org/2000/svg">
<path d="M31.2612 37.2436C30.7866 37.2436 30.4018 36.8588 30.4018 36.3842V26.9814L26.1682 23.1826C25.815 22.8656 25.7856 22.3223 26.1025 21.9691C26.4194 21.6158 26.9627 21.5863 27.3161 21.9033L31.8352 25.9583C32.0168 26.1212 32.1206 26.3538 32.1206 26.5979V36.3841C32.1206 36.8588 31.7358 37.2436 31.2612 37.2436Z" fill="#0363E9"/>
<path d="M37.2309 14.632H32.1236V11.0577C32.1236 9.5957 30.9342 8.40633 29.4723 8.40633H24.3624C23.8878 8.40633 23.503 8.79109 23.503 9.2657C23.503 9.74031 23.8878 10.1251 24.3624 10.1251H29.4723C29.9865 10.1251 30.4048 10.5434 30.4048 11.0577V14.632H28.3091C26.7823 14.632 25.5401 15.8741 25.5401 17.401V28.4977H1.71875V11.0576C1.71875 10.5434 2.13703 10.125 2.65133 10.125H7.76125C8.23586 10.125 8.62063 9.74023 8.62063 9.26562C8.62063 8.79102 8.23586 8.40625 7.76125 8.40625H2.65133C1.18938 8.40633 0 9.59562 0 11.0576V31.1209C0 32.5828 1.18938 33.7722 2.65133 33.7722H13.4414L12.4105 35.9108H10.808C10.3334 35.9108 9.94867 36.2955 9.94867 36.7702C9.94867 37.2448 10.3334 37.6295 10.808 37.6295H21.9308C22.4054 37.6295 22.7902 37.2448 22.7902 36.7702C22.7902 36.2955 22.4054 35.9108 21.9308 35.9108H19.7131L18.6822 33.7722H25.54V34.8604C25.54 36.3873 26.7822 37.6295 28.3091 37.6295H37.2309C38.7577 37.6295 39.9999 36.3873 39.9999 34.8604V17.401C40 15.8741 38.7578 14.632 37.2309 14.632ZM14.3186 35.9107L15.3495 33.7721H16.7741L17.8051 35.9107H14.3186ZM25.54 32.0534H2.65133C2.13711 32.0534 1.71875 31.6352 1.71875 31.1209V30.2164H25.54V32.0534ZM38.2812 34.8604C38.2812 35.4395 37.8101 35.9107 37.2309 35.9107H28.3091C27.7299 35.9107 27.2587 35.4395 27.2587 34.8604V17.401C27.2587 16.8219 27.7299 16.3507 28.3091 16.3507H37.2309C37.81 16.3507 38.2812 16.8219 38.2812 17.401V34.8604H38.2812Z" fill="#1D2129"/>
<path d="M36.2926 19.3086C36.2926 18.834 35.9078 18.4492 35.4332 18.4492H30.1094C29.6348 18.4492 29.25 18.834 29.25 19.3086C29.25 19.7832 29.6348 20.168 30.1094 20.168H35.4332C35.9079 20.168 36.2926 19.7832 36.2926 19.3086Z" fill="#1D2129"/>
<path d="M35.4297 23.9141C35.9043 23.9141 36.2891 23.5293 36.2891 23.0547C36.2891 22.5801 35.9043 22.1953 35.4297 22.1953C34.9551 22.1953 34.5703 22.5801 34.5703 23.0547C34.5703 23.5293 34.9551 23.9141 35.4297 23.9141Z" fill="#1D2129"/>
<path d="M35.4297 27.5977C35.9043 27.5977 36.2891 27.2129 36.2891 26.7383C36.2891 26.2637 35.9043 25.8789 35.4297 25.8789C34.9551 25.8789 34.5703 26.2637 34.5703 26.7383C34.5703 27.2129 34.9551 27.5977 35.4297 27.5977Z" fill="#1D2129"/>
<path d="M35.4297 31.2852C35.9043 31.2852 36.2891 30.9004 36.2891 30.4258C36.2891 29.9512 35.9043 29.5664 35.4297 29.5664C34.9551 29.5664 34.5703 29.9512 34.5703 30.4258C34.5703 30.9004 34.9551 31.2852 35.4297 31.2852Z" fill="#1D2129"/>
<path d="M18.008 21.008H14.1089C13.6874 21.008 13.3282 20.7024 13.2607 20.2864L12.9747 18.5254C12.5195 18.3201 12.0869 18.07 11.6812 17.7777L10.0123 18.4109C9.61826 18.5605 9.17397 18.4022 8.96319 18.0371L7.01365 14.6604C6.80295 14.2954 6.88803 13.8315 7.21444 13.565L8.59819 12.4355C8.57295 12.1857 8.5603 11.9362 8.5603 11.6895C8.5603 11.4429 8.57295 11.1934 8.59819 10.9435L7.21444 9.81406C6.88795 9.54758 6.80287 9.08359 7.01365 8.71867L8.96319 5.34195C9.17389 4.97695 9.61811 4.81859 10.0123 4.96813L11.6812 5.60133C12.0869 5.30906 12.5194 5.05906 12.9747 4.85367L13.2607 3.09273C13.3282 2.67672 13.6875 2.37109 14.1089 2.37109H18.008C18.4294 2.37109 18.7887 2.67672 18.8562 3.09273L19.1422 4.85367C19.5973 5.05906 20.0299 5.30914 20.4357 5.60133L22.1045 4.96813C22.4987 4.81875 22.943 4.97688 23.1537 5.34195L25.1033 8.71867C25.314 9.08367 25.2289 9.54758 24.9024 9.81414L23.5187 10.9436C23.5439 11.1934 23.5565 11.443 23.5565 11.6896C23.5565 11.9362 23.5439 12.1858 23.5187 12.4355L24.9025 13.5651C25.229 13.8316 25.314 14.2955 25.1033 14.6605L23.1537 18.0372C22.943 18.4021 22.4985 18.5604 22.1045 18.411L20.4357 17.7778C20.03 18.0701 19.5974 18.3201 19.1422 18.5255L18.8562 20.2865C18.7887 20.7024 18.4294 21.008 18.008 21.008ZM14.8399 19.2893H17.2769L17.5226 17.776C17.5722 17.4709 17.7817 17.2159 18.0715 17.1082C18.6796 16.8822 19.2419 16.5571 19.7429 16.142C19.981 15.9447 20.3069 15.8906 20.5961 16.0003L22.0307 16.5447L23.2493 14.4342L22.0599 13.4635C21.8207 13.2683 21.7047 12.9597 21.7558 12.6552C21.8102 12.332 21.8378 12.0072 21.8378 11.6896C21.8378 11.372 21.8102 11.0472 21.7558 10.724C21.7047 10.4195 21.8207 10.1109 22.06 9.91563L23.2493 8.94492L22.0307 6.83445L20.5961 7.37883C20.307 7.48852 19.9812 7.43445 19.7429 7.23711C19.242 6.82211 18.6797 6.49695 18.0714 6.27086C17.7817 6.1632 17.5721 5.9082 17.5226 5.60313L17.2769 4.08992H14.8399L14.5941 5.60313C14.5446 5.9082 14.3351 6.1632 14.0454 6.27086C13.4372 6.49695 12.8748 6.82203 12.3739 7.23711C12.1357 7.43437 11.8097 7.48852 11.5207 7.37883L10.0861 6.83453L8.86756 8.94492L10.0569 9.91563C10.2961 10.1109 10.4121 10.4195 10.3609 10.7239C10.3065 11.0471 10.279 11.372 10.279 11.6895C10.279 12.0071 10.3065 12.332 10.3609 12.6552C10.4121 12.9596 10.2961 13.2682 10.0569 13.4634L8.86756 14.4341L10.0861 16.5446L11.5207 16.0003C11.8097 15.8907 12.1356 15.9447 12.3739 16.142C12.8747 16.557 13.4371 16.8822 14.0453 17.1082C14.3351 17.2159 14.5447 17.4709 14.5941 17.776L14.8399 19.2893Z" fill="#0363E9"/>
<path d="M16.0582 15.3158C14.0574 15.3158 12.4297 13.688 12.4297 11.6872C12.4297 9.68633 14.0574 8.05859 16.0582 8.05859C18.059 8.05859 19.6868 9.68633 19.6868 11.6872C19.6868 13.688 18.059 15.3158 16.0582 15.3158ZM16.0582 9.77734C15.0052 9.77734 14.1484 10.6341 14.1484 11.6872C14.1484 12.7403 15.0052 13.597 16.0582 13.597C17.1113 13.597 17.968 12.7403 17.968 11.6872C17.968 10.6341 17.1113 9.77734 16.0582 9.77734Z" fill="#0363E9"/>
</svg>
