<svg width="48" height="48" viewBox="0 0 48 48" fill="none" xmlns="http://www.w3.org/2000/svg">
<path d="M30.75 31.5C38.6201 31.5 45 25.1201 45 17.25C45 9.37994 38.6201 3 30.75 3C22.8799 3 16.5 9.37994 16.5 17.25C16.5 25.1201 22.8799 31.5 30.75 31.5Z" fill="url(#paint0_linear_0_69)"/>
<path d="M30.75 6.75C31.1642 6.75 31.5 6.41421 31.5 6C31.5 5.58579 31.1642 5.25 30.75 5.25C30.3358 5.25 30 5.58579 30 6C30 6.41421 30.3358 6.75 30.75 6.75Z" fill="#DFEDFF"/>
<path d="M30.75 30C31.1642 30 31.5 29.6642 31.5 29.25C31.5 28.8358 31.1642 28.5 30.75 28.5C30.3358 28.5 30 28.8358 30 29.25C30 29.6642 30.3358 30 30.75 30Z" fill="url(#paint1_linear_0_69)"/>
<path d="M25.4103 8.23859C25.7707 8.03149 25.8949 7.57146 25.6878 7.21109C25.4807 6.85073 25.0207 6.72649 24.6603 6.93359C24.2999 7.1407 24.1757 7.60073 24.3828 7.96109C24.5899 8.32146 25.0499 8.4457 25.4103 8.23859Z" fill="#DFEDFF"/>
<path d="M37.0744 28.4534C37.4347 28.2463 37.559 27.7863 37.3519 27.4259C37.1448 27.0656 36.6847 26.9413 36.3244 27.1484C35.964 27.3555 35.8398 27.8156 36.0469 28.1759C36.254 28.5363 36.714 28.6605 37.0744 28.4534Z" fill="#DFEDFF"/>
<path d="M21.3303 12.1903C21.5374 11.8316 21.4145 11.3729 21.0558 11.1658C20.697 10.9587 20.2384 11.0816 20.0312 11.4403C19.8241 11.799 19.947 12.2577 20.3058 12.4648C20.6645 12.672 21.1232 12.549 21.3303 12.1903Z" fill="#DFEDFF"/>
<path d="M41.4709 23.8153C41.678 23.4566 41.5551 22.9979 41.1964 22.7908C40.8377 22.5837 40.379 22.7066 40.1719 23.0653C39.9648 23.424 40.0877 23.8827 40.4464 24.0898C40.8051 24.297 41.2638 24.174 41.4709 23.8153Z" fill="#DFEDFF"/>
<path d="M19.1328 18.3789C19.547 18.3789 19.8828 18.0431 19.8828 17.6289C19.8828 17.2147 19.547 16.8789 19.1328 16.8789C18.7186 16.8789 18.3828 17.2147 18.3828 17.6289C18.3828 18.0431 18.7186 18.3789 19.1328 18.3789Z" fill="#DFEDFF"/>
<path d="M42.3828 18.3789C42.797 18.3789 43.1328 18.0431 43.1328 17.6289C43.1328 17.2147 42.797 16.8789 42.3828 16.8789C41.9686 16.8789 41.6328 17.2147 41.6328 17.6289C41.6328 18.0431 41.9686 18.3789 42.3828 18.3789Z" fill="#DFEDFF"/>
<path d="M21.0558 24.0881C21.4145 23.881 21.5374 23.4223 21.3303 23.0636C21.1232 22.7049 20.6645 22.582 20.3058 22.7891C19.947 22.9962 19.8241 23.4549 20.0312 23.8136C20.2384 24.1723 20.697 24.2952 21.0558 24.0881Z" fill="#DFEDFF"/>
<path d="M41.1886 12.4592C41.5473 12.2521 41.6702 11.7934 41.4631 11.4347C41.256 11.076 40.7973 10.953 40.4386 11.1602C40.0799 11.3673 39.957 11.826 40.1641 12.1847C40.3712 12.5434 40.8299 12.6663 41.1886 12.4592Z" fill="#DFEDFF"/>
<path d="M25.5881 28.0614C25.7952 27.7027 25.6723 27.244 25.3136 27.0369C24.9549 26.8298 24.4962 26.9527 24.2891 27.3114C24.082 27.6701 24.2049 28.1288 24.5636 28.3359C24.9223 28.543 25.381 28.4201 25.5881 28.0614Z" fill="#DFEDFF"/>
<path d="M37.2131 7.93251C37.4202 7.57379 37.2973 7.1151 36.9386 6.90799C36.5799 6.70089 36.1212 6.82379 35.9141 7.18251C35.707 7.54123 35.8299 7.99992 36.1886 8.20703C36.5473 8.41414 37.006 8.29123 37.2131 7.93251Z" fill="#DFEDFF"/>
<path opacity="0.4" d="M26.9219 30.6919H35V18H27L26.9219 30.6919Z" fill="url(#paint2_linear_0_69)"/>
<path d="M32 19.0058V18.0058H35V16.0058H32.414L34.535 13.8827L33.121 12.4688L31 14.5907L28.879 12.4688L27.464 13.8827L29.586 16.0048H27V18.0048H30V19.0048H27V21.0048H30V23.0047H32V21.0048H35V19.0048L32 19.0058Z" fill="url(#paint3_linear_0_69)"/>
<path d="M30.36 27.4909H20.74C20.6354 27.4912 20.5324 27.4655 20.4403 27.416C20.3482 27.3666 20.2698 27.2949 20.2122 27.2076C20.1547 27.1203 20.1198 27.0201 20.1107 26.9159C20.1016 26.8117 20.1185 26.7069 20.16 26.6109L22.16 22.0509C22.3464 21.6187 22.4384 21.1516 22.43 20.6809C22.4335 20.2612 22.3049 19.8509 22.0623 19.5083C21.8197 19.1657 21.4755 18.9081 21.0783 18.772C20.6812 18.636 20.2513 18.6283 19.8496 18.7502C19.4478 18.872 19.0946 19.1172 18.84 19.4509L10.68 28.8009C10.3563 29.1762 9.95572 29.4776 9.50542 29.6846C9.05512 29.8916 8.56561 29.9995 8.07 30.0009H5.5V43.7409H24.35C25.3797 43.7404 26.3775 43.3836 27.1741 42.731C27.9706 42.0785 28.5168 41.1704 28.72 40.1609L30.26 33.5109C30.3255 33.2428 30.4581 32.9957 30.6453 32.7928C30.8324 32.5899 31.068 32.4379 31.33 32.3509C31.8401 32.1722 32.2786 31.833 32.5797 31.3841C32.8808 30.9351 33.0282 30.4007 33 29.8609C32.9419 29.205 32.637 28.5956 32.147 28.1557C31.657 27.7158 31.0184 27.4782 30.36 27.4909Z" fill="url(#paint4_linear_0_69)"/>
<path d="M30.3594 27.4888H20.8594C22.3884 28.988 24.2409 30.1164 26.2745 30.7873C28.3081 31.4582 30.4684 31.6537 32.5894 31.3588C32.8827 30.9154 33.0263 30.3897 32.9994 29.8588C32.9412 29.2028 32.6364 28.5934 32.1464 28.1535C31.6564 27.7136 31.0177 27.4761 30.3594 27.4888Z" fill="url(#paint5_linear_0_69)"/>
<path d="M20.1406 26.7387C20.1365 26.6989 20.1365 26.6586 20.1406 26.6188L22.1406 22.0587C22.327 21.6265 22.4191 21.1594 22.4106 20.6887C22.4142 20.269 22.2855 19.8587 22.0429 19.5161C21.8003 19.1735 21.4561 18.9159 21.0589 18.7798C20.6618 18.6438 20.2319 18.6361 19.8302 18.758C19.4285 18.8798 19.0753 19.125 18.8206 19.4587L17.1406 21.3987C17.7406 23.3757 18.7643 25.198 20.1406 26.7387Z" fill="url(#paint6_linear_0_69)"/>
<path d="M4.5 44.9883H3L3 28.7383H4.5C4.76522 28.7383 5.01957 28.8436 5.20711 29.0312C5.39464 29.2187 5.5 29.4731 5.5 29.7383L5.5 43.9983C5.49737 44.2618 5.39085 44.5136 5.20359 44.6989C5.01634 44.8843 4.76349 44.9883 4.5 44.9883Z" fill="url(#paint7_linear_0_69)"/>
<defs>
<linearGradient id="paint0_linear_0_69" x1="30.75" y1="33.3269" x2="30.75" y2="-21.2396" gradientUnits="userSpaceOnUse">
<stop stop-color="#27E9DE"/>
<stop offset="0.52" stop-color="#03A4EC"/>
<stop offset="1" stop-color="#2547A8"/>
</linearGradient>
<linearGradient id="paint1_linear_0_69" x1="-1.07465e-06" y1="32.78" x2="30.75" y2="24.05" gradientUnits="userSpaceOnUse">
<stop stop-color="#F3C57A"/>
<stop offset="0.49" stop-color="#F39369"/>
<stop offset="1" stop-color="#E94867"/>
</linearGradient>
<linearGradient id="paint2_linear_0_69" x1="30.9609" y1="18" x2="30.9609" y2="30.6919" gradientUnits="userSpaceOnUse">
<stop stop-color="#004DF3"/>
<stop offset="1" stop-color="#5294FF" stop-opacity="0"/>
</linearGradient>
<linearGradient id="paint3_linear_0_69" x1="31.0284" y1="25.7323" x2="31.0284" y2="-26.9767" gradientUnits="userSpaceOnUse">
<stop stop-color="white"/>
<stop offset="0.41" stop-color="#CCE2E6"/>
<stop offset="1" stop-color="#8FA1BB"/>
</linearGradient>
<linearGradient id="paint4_linear_0_69" x1="19.2517" y1="18.6641" x2="19.2517" y2="43.7409" gradientUnits="userSpaceOnUse">
<stop stop-color="#004DF3"/>
<stop offset="1" stop-color="#5294FF"/>
</linearGradient>
<linearGradient id="paint5_linear_0_69" x1="26.931" y1="27.4883" x2="26.931" y2="31.4922" gradientUnits="userSpaceOnUse">
<stop stop-color="#004DF3"/>
<stop offset="1" stop-color="#5294FF"/>
</linearGradient>
<linearGradient id="paint6_linear_0_69" x1="19.7759" y1="18.6719" x2="19.7759" y2="26.7387" gradientUnits="userSpaceOnUse">
<stop stop-color="#004DF3"/>
<stop offset="1" stop-color="#5294FF"/>
</linearGradient>
<linearGradient id="paint7_linear_0_69" x1="4.25" y1="44.9883" x2="4.25" y2="28.7383" gradientUnits="userSpaceOnUse">
<stop stop-color="#004DF3"/>
<stop offset="1" stop-color="#5294FF"/>
</linearGradient>
</defs>
</svg>
