<svg width="40" height="40" viewBox="0 0 40 40" fill="none" xmlns="http://www.w3.org/2000/svg">
<g clip-path="url(#clip0_0_3)">
<path d="M24.1725 9.02734H15.8203C15.3457 9.02734 14.9609 8.64258 14.9609 8.16797C14.9609 7.69336 15.3457 7.30859 15.8203 7.30859H24.1724C24.647 7.30859 25.0318 7.69336 25.0318 8.16797C25.0319 8.64266 24.6471 9.02734 24.1725 9.02734Z" fill="#0363E9"/>
<path d="M24.1032 18.5547H15.8906C15.416 18.5547 15.0312 18.1699 15.0312 17.6953C15.0312 17.2207 15.416 16.8359 15.8906 16.8359H24.1032C24.5778 16.8359 24.9626 17.2207 24.9626 17.6953C24.9626 18.1699 24.5778 18.5547 24.1032 18.5547Z" fill="#0363E9"/>
<path d="M8.28914 35.2338C7.93508 35.2338 7.60344 35.0133 7.47883 34.6604C7.31148 34.1863 7.22656 33.6891 7.22656 33.1829C7.22656 30.7384 9.21531 28.7495 11.6598 28.7495C11.9318 28.7495 12.2027 28.7752 12.4705 28.8262C13.2082 27.3442 14.7314 26.3669 16.4252 26.3669C16.6082 26.3669 16.7571 26.218 16.7571 26.0349V22.4609C16.7571 21.9863 17.1419 21.6016 17.6165 21.6016C18.0911 21.6016 18.4759 21.9863 18.4759 22.4609V26.0349C18.4759 27.1657 17.5559 28.0856 16.4252 28.0856C15.2103 28.0856 14.1384 28.9118 13.8184 30.0948C13.7543 30.3318 13.5919 30.53 13.3721 30.6395C13.1524 30.7491 12.8963 30.7595 12.6685 30.6678C12.3387 30.5354 11.9993 30.4682 11.6598 30.4682C10.163 30.4682 8.94531 31.686 8.94531 33.1828C8.94531 33.4937 8.99719 33.7982 9.09953 34.088C9.25758 34.5355 9.02297 35.0265 8.57539 35.1845C8.48062 35.218 8.38406 35.2338 8.28914 35.2338Z" fill="#0363E9"/>
<path d="M31.7895 35.2337C31.6945 35.2337 31.598 35.2179 31.5034 35.1845C31.0558 35.0264 30.8212 34.5355 30.9792 34.088C31.0816 33.7982 31.1334 33.4937 31.1334 33.1828C31.1334 31.7113 29.854 30.4682 28.3395 30.4682C27.9999 30.4682 27.6606 30.5353 27.3308 30.6678C27.1029 30.7593 26.847 30.7491 26.6272 30.6395C26.4075 30.5301 26.245 30.3318 26.1809 30.0948C25.8609 28.9118 24.789 28.0856 23.5741 28.0856C22.4434 28.0856 21.5234 27.1657 21.5234 26.0349V22.4609C21.5234 21.9863 21.9082 21.6016 22.3828 21.6016C22.8574 21.6016 23.2422 21.9863 23.2422 22.4609V26.0349C23.2422 26.218 23.3911 26.3669 23.5741 26.3669C25.2679 26.3669 26.7911 27.3442 27.5288 28.8262C27.7966 28.7752 28.0674 28.7495 28.3395 28.7495C29.5236 28.7495 30.6477 29.2074 31.5048 30.039C32.3737 30.882 32.8522 31.9986 32.8522 33.1829C32.8522 33.6891 32.7673 34.1863 32.5999 34.6604C32.4753 35.0132 32.1436 35.2337 31.7895 35.2337Z" fill="#0363E9"/>
<path d="M39.1406 33.5159H37.6173V12.9315C37.6173 11.1438 36.163 9.68945 34.3753 9.68945H25.3888C24.8191 6.28234 23.2304 3.07055 20.775 0.436797C20.7341 0.393047 20.7023 0.359453 20.6816 0.336016C20.5197 0.125078 20.2682 0 20 0C19.733 0 19.4826 0.123984 19.3205 0.333203C19.3003 0.355781 19.2698 0.387891 19.2305 0.429688C16.7691 3.04969 15.1777 6.26445 14.6094 9.68937H5.62469C3.83703 9.68937 2.38266 11.1438 2.38266 12.9314V33.5159H0.859375C0.384766 33.5159 0 33.9006 0 34.3752C0 37.4768 2.5232 40 5.62469 40H34.3753C37.4768 40 40 37.4768 40 34.3753C40 33.9007 39.6152 33.5159 39.1406 33.5159ZM20.7162 0.384531C20.7073 0.370937 20.6979 0.357656 20.6882 0.344688C20.7009 0.361016 20.7098 0.374687 20.7162 0.384531ZM19.3138 0.342031C19.3034 0.355859 19.2934 0.37 19.2837 0.384609C19.2905 0.374297 19.3 0.359609 19.3138 0.342031ZM19.9978 2.14594C22.5234 5.09461 23.9059 8.75226 23.9059 12.5227C23.9059 16.5438 22.7227 19.3654 22.0156 21.0512C21.9336 21.2469 21.8565 21.4306 21.787 21.6027H18.2123C18.1478 21.4437 18.0755 21.2716 17.9964 21.0828C17.8339 20.6954 17.6463 20.2477 17.4538 19.7405C17.4363 19.653 17.4045 19.568 17.3595 19.4882C16.7365 17.7944 16.0941 15.4788 16.0941 12.5226C16.0941 8.73227 17.4752 5.07477 19.9978 2.14594ZM4.10141 12.9315C4.10141 12.0916 4.78477 11.4082 5.62469 11.4082H14.4123C14.3884 11.7783 14.3753 12.1498 14.3753 12.5227C14.3753 15.5352 14.9808 17.9147 15.6065 19.6972L13.4377 21.8527C13.1009 22.1872 13.0993 22.7313 13.4338 23.068C13.6018 23.237 13.8227 23.3216 14.0434 23.3216C14.2625 23.3216 14.4816 23.2384 14.6492 23.0718L16.2852 21.4459C16.3285 21.5498 16.3709 21.6509 16.4116 21.7477C16.5535 22.0863 16.679 22.3853 16.7616 22.6159C16.8341 23.0172 17.1852 23.3216 17.6073 23.3216H22.3827C22.7548 23.3216 23.0845 23.0823 23.1998 22.7285C23.2827 22.4745 23.43 22.123 23.6007 21.716C23.6391 21.6245 23.6791 21.5289 23.7199 21.4311L25.3473 23.068C25.5153 23.237 25.736 23.3216 25.9568 23.3216C26.1759 23.3216 26.395 23.2384 26.5627 23.0716C26.8993 22.737 26.9009 22.1929 26.5662 21.8563L24.4005 19.6779C25.0227 17.904 25.6248 15.5333 25.6248 12.5227C25.6248 12.15 25.6116 11.7784 25.5875 11.4082H34.3754C35.2153 11.4082 35.8987 12.0916 35.8987 12.9315V33.5159H4.10141V12.9315ZM34.3753 38.2812H5.62469C3.76609 38.2812 2.20648 36.9765 1.81398 35.2347H38.186C37.7935 36.9765 36.2339 38.2812 34.3753 38.2812Z" fill="#1D2129"/>
<path d="M19.9961 13.8722C18.7609 13.8485 18.9485 11.9512 20.1641 12.1699C21.1593 12.3443 21.0059 13.8955 19.9961 13.8722Z" fill="#1D2129"/>
</g>
<defs>
<clipPath id="clip0_0_3">
<rect width="40" height="40" fill="white"/>
</clipPath>
</defs>
</svg>
