<svg width="162" height="40" viewBox="0 0 162 40" fill="none" xmlns="http://www.w3.org/2000/svg">
<g clip-path="url(#clip0_0_7)">
<path fill-rule="evenodd" clip-rule="evenodd" d="M30.8792 11.9163L21.6006 2.63256C20.7622 1.78394 19.3922 1.78394 18.5435 2.63256L9.25981 11.9163C6.39188 14.7944 4.79688 18.6695 4.79688 22.7286C4.79688 26.7927 6.39188 30.6627 9.25981 33.5459C12.1329 36.419 16.013 38.0038 20.0721 38.0038C24.1363 38.0038 28.0062 36.419 30.8792 33.5459C33.7574 30.6678 35.3422 26.7927 35.3422 22.7337C35.3473 18.6695 33.7625 14.7944 30.8792 11.9163ZM31.6819 30.0441C31.1451 30.9029 30.5061 31.7004 29.7801 32.4315C27.1985 35.0131 23.7222 36.4343 20.0772 36.4343C16.4271 36.4343 12.9457 35.0131 10.3692 32.4315C9.64323 31.7056 9.0042 30.9029 8.46742 30.0492C7.56768 28.6178 6.94399 27.0381 6.62192 25.3767C6.45322 24.5127 6.36632 23.6283 6.36632 22.7337C6.36632 21.3125 6.58103 19.922 7.00023 18.5928C7.65459 16.5173 8.7946 14.6053 10.3692 13.0307L19.658 3.74702C19.888 3.51697 20.2663 3.51697 20.4964 3.74702L29.775 13.0256C31.3496 14.6002 32.4947 16.5121 33.1439 18.5877C33.558 19.9117 33.7778 21.3074 33.7778 22.7286C33.7778 23.6232 33.6909 24.5076 33.5222 25.3716C33.2053 27.033 32.5765 28.6178 31.6819 30.0441Z" fill="url(#paint0_linear_0_7)"/>
<path fill-rule="evenodd" clip-rule="evenodd" d="M21.9501 12.263C21.9501 12.3857 21.9398 12.5084 21.9143 12.626C21.8989 12.6976 21.8836 12.764 21.8632 12.8305C21.8172 12.9838 21.7456 13.1321 21.6638 13.2701C21.6178 13.3468 21.5615 13.4184 21.5053 13.49C21.4746 13.5257 21.4388 13.5615 21.4031 13.5973C21.0503 13.9501 20.5698 14.1443 20.0688 14.1443C19.5678 14.1443 19.0924 13.9501 18.7345 13.5973C18.6987 13.5615 18.668 13.5257 18.6323 13.49C18.5709 13.4184 18.5198 13.3468 18.4738 13.2701C18.3869 13.1321 18.3204 12.9838 18.2744 12.8305C18.254 12.764 18.2386 12.6976 18.2233 12.626C18.1977 12.5084 18.1875 12.3857 18.1875 12.263C18.1875 12.0841 18.2131 11.9103 18.2591 11.7416C18.2642 11.7263 18.2693 11.7109 18.2744 11.6905C18.3613 11.4042 18.5198 11.1435 18.7345 10.9288L20.0074 9.65582C20.0381 9.62514 20.0892 9.62514 20.125 9.65582L21.398 10.9288C21.6127 11.1435 21.7711 11.4093 21.858 11.6905C21.8632 11.7058 21.8683 11.7211 21.8734 11.7416C21.9245 11.9103 21.9501 12.0841 21.9501 12.263Z" fill="#0363E9"/>
<path fill-rule="evenodd" clip-rule="evenodd" d="M29.6099 30.6453C29.4003 30.8958 29.1754 31.1361 28.9402 31.3713C26.5835 33.728 23.4037 35.0265 20.0757 35.0265C16.7374 35.0265 13.5577 33.728 11.2009 31.3662C10.9658 31.131 10.746 30.8907 10.5312 30.6453C10.8942 30.6965 11.2879 30.722 11.7122 30.722C14.2887 30.722 15.6639 29.7302 16.7732 28.9327C17.7548 28.2222 18.4705 27.7109 20.0706 27.7109C21.6758 27.7109 22.3864 28.2222 23.3679 28.9327C24.4773 29.7302 25.8525 30.722 28.429 30.722C28.8533 30.722 29.247 30.6913 29.6099 30.6453Z" fill="#0363E9"/>
<path fill-rule="evenodd" clip-rule="evenodd" d="M32.599 22.4979C32.599 23.3158 32.5223 24.1235 32.3689 24.9159C32.282 25.376 32.1645 25.8259 32.0264 26.2706C31.9242 26.3422 31.8219 26.4138 31.7248 26.4854C30.7433 27.1959 30.0276 27.7072 28.4274 27.7072C26.8273 27.7072 26.1116 27.1959 25.1301 26.4854C24.0259 25.6879 22.6456 24.6961 20.069 24.6961C17.4925 24.6961 16.1173 25.6879 15.008 26.4854C14.0264 27.1959 13.3107 27.7072 11.7106 27.7072C10.1054 27.7072 9.39479 27.1959 8.41325 26.4854C8.31611 26.4138 8.21387 26.3422 8.11163 26.2706C7.9736 25.8259 7.85602 25.376 7.76911 24.9159C7.61575 24.1286 7.53906 23.3158 7.53906 22.4979C7.53906 21.3169 7.70265 20.1565 8.01961 19.042C8.92446 19.6657 9.9469 20.2025 11.7106 20.2025C15.8873 20.2025 15.8873 17.1914 20.069 17.1914C24.2508 17.1914 24.2508 20.2025 28.4274 20.2025C30.1963 20.2025 31.2187 19.6657 32.1236 19.042C32.4354 20.1514 32.599 21.3169 32.599 22.4979Z" fill="#0363E9"/>
</g>
<path d="M60.28 17.94L60.02 19.98H43.84L44.1 17.94H60.28ZM77.18 11.26H78.92L79.48 12.68H80.78L80.58 14.28H76.12L76.2 15.24C76.24 15.8267 76.3 16.4 76.38 16.96C76.4333 17.3333 76.48 17.6133 76.52 17.8C77.2533 16.8933 77.84 15.9933 78.28 15.1H80.2C79.3067 16.82 78.2533 18.3467 77.04 19.68C77.1733 20.0133 77.2933 20.2533 77.4 20.4C77.52 20.5467 77.66 20.64 77.82 20.68C77.86 20.6933 77.9267 20.7 78.02 20.7C78.14 20.7 78.26 20.68 78.38 20.64C79.0867 20.36 79.7667 20.0333 80.42 19.66L80.28 21.66C79.6 21.98 79.0133 22.22 78.52 22.38C78.2267 22.46 77.9533 22.5 77.7 22.5C77.0333 22.5 76.5 22.2067 76.1 21.62C75.9667 21.4467 75.8467 21.2333 75.74 20.98C75.3267 21.3533 74.8533 21.7333 74.32 22.12L73.04 21.46L72.98 22.02H67.54L67.9 18.92C67.98 18.4933 68.1133 18.18 68.3 17.98C68.5 17.7667 68.8067 17.66 69.22 17.66H72.06C72.5 17.66 72.82 17.7667 73.02 17.98C73.2333 18.18 73.34 18.5 73.34 18.94C73.34 19.1267 73.3333 19.2733 73.32 19.38L73.12 20.96C73.8 20.44 74.4667 19.88 75.12 19.28C74.8933 18.4933 74.7067 17.52 74.56 16.36C74.5067 15.96 74.44 15.2667 74.36 14.28H67.62L67.44 15.64C67.2933 16.9733 67.0067 18.34 66.58 19.74C66.18 21.06 65.78 22.04 65.38 22.68L63.52 22.22C64.0533 21.2467 64.4867 20.2467 64.82 19.22C65.1667 18.1933 65.4 17.02 65.52 15.7L65.68 14.24C65.7467 13.68 65.92 13.28 66.2 13.04C66.48 12.8 66.9 12.68 67.46 12.68H74.26C74.22 12.1333 74.2 11.6133 74.2 11.12H76.02V11.88C76.02 12.24 76.0267 12.5067 76.04 12.68H77.74L77.18 11.26ZM73.78 15.28L73.62 16.76H68.08L68.26 15.28H73.78ZM71.68 19.1H69.54L69.36 20.58H71.5L71.68 19.1ZM72.62 25.32L71.44 22.64H73.26L74.54 25.32H72.62ZM76.18 27.78C75.14 28.1 73.8933 28.26 72.44 28.26H69.42C68.8867 28.26 68.4733 28.12 68.18 27.84C67.9 27.56 67.76 27.1667 67.76 26.66C67.76 26.4467 67.7733 26.28 67.8 26.16L68.26 22.84H70.1L69.72 26.08L69.7 26.24C69.7 26.36 69.7333 26.44 69.8 26.48C69.8667 26.52 69.9667 26.54 70.1 26.54H72.4C73.7333 26.54 75.04 26.34 76.32 25.94L76.18 27.78ZM63.22 27.28L65.16 23.04H67.04L65.26 27.28H63.22ZM76.24 23.1H78.14L80.06 27.36H77.98L76.24 23.1ZM85.6 13.94C85.3867 13.94 85.22 13.9 85.1 13.82C84.98 13.7267 84.92 13.6067 84.92 13.46C84.92 13.3533 84.9667 13.2067 85.06 13.02L85.9 11.36H87.84L87.38 12.38H92.64L92.4 13.94H90.04C89.9733 14.3267 89.86 14.7867 89.7 15.32H92.68L92.48 16.9H89.16C90.24 17.4733 91.3333 18.1733 92.44 19L91.16 20.12C90.3467 19.52 89.8267 19.1267 89.6 18.94C89.1333 18.6067 88.7 18.3133 88.3 18.06C87.4733 19.1533 86.3933 20.0933 85.06 20.88L83.54 19.76C84.3533 19.3067 85.04 18.8533 85.6 18.4C86.16 17.9467 86.6267 17.4467 87 16.9H84.08L84.28 15.32H87.82C87.9933 14.8667 88.12 14.4067 88.2 13.94H85.6ZM99.66 19.54H92.72L93.46 13.58C93.5133 13.1533 93.6733 12.82 93.94 12.58C94.2067 12.34 94.5533 12.22 94.98 12.22H99.02C99.46 12.22 99.8133 12.3733 100.08 12.68C100.347 12.9733 100.447 13.3267 100.38 13.74L99.66 19.54ZM94.74 17.94H98.04L98.48 13.82H95.24L94.74 17.94ZM97.64 28.38H85.08L85.94 21.74C85.9933 21.34 86.1667 21.0133 86.46 20.76C86.7667 20.5067 87.1333 20.38 87.56 20.38H96.96C97.4 20.38 97.7467 20.4933 98 20.72C98.2533 20.9467 98.38 21.26 98.38 21.66C98.38 21.7933 98.3733 21.8933 98.36 21.96L97.64 28.38ZM96.42 22.06H87.8L87.6 23.58H96.24L96.42 22.06ZM87.22 26.7H95.9L96.06 25.18H87.4L87.22 26.7ZM110.74 16.26C109.353 16.5 107.6 16.7 105.48 16.86C105.16 16.8867 104.88 16.8467 104.64 16.74C104.4 16.6333 104.233 16.4867 104.14 16.3C104.073 16.1667 104.04 16.0333 104.04 15.9C104.04 15.6067 104.187 15.2933 104.48 14.96C105.2 14.1467 106.12 12.9267 107.24 11.3H109.46C109.007 12.02 108.513 12.74 107.98 13.46C107.58 13.9933 107.133 14.5333 106.64 15.08C108.027 14.9867 109.26 14.8333 110.34 14.62L109.9 12.68H111.62L112.74 17.2H110.96L110.74 16.26ZM120.14 14.2C119.007 14.6133 117.393 15.0067 115.3 15.38L115.18 16.56C115.167 16.6 115.16 16.6533 115.16 16.72C115.16 16.9733 115.333 17.1 115.68 17.1H116.98C118.247 17.1 119.42 16.8333 120.5 16.3L120.24 18.28C119.373 18.6667 118.207 18.86 116.74 18.86H114.86C114.3 18.86 113.887 18.7467 113.62 18.52C113.367 18.28 113.24 17.9333 113.24 17.48C113.24 17.3333 113.247 17.2133 113.26 17.12L113.86 11.34H115.72L115.48 13.68C116.707 13.44 118.327 13.0067 120.34 12.38L120.14 14.2ZM109.5 24.98H105.6L105.24 28.42H103.46L104.4 19.26C104.467 18.6733 104.627 18.2533 104.88 18C105.147 17.7467 105.56 17.62 106.12 17.62H110.38C111.353 17.62 111.84 18.06 111.84 18.94C111.84 19.1 111.833 19.22 111.82 19.3L111.16 26.7C111.08 27.34 110.907 27.7933 110.64 28.06C110.387 28.3267 109.98 28.46 109.42 28.46C109.047 28.46 108.64 28.4267 108.2 28.36C107.76 28.3067 107.427 28.2333 107.2 28.14L107.34 26.44C108.06 26.6267 108.593 26.72 108.94 26.72C109.1 26.72 109.207 26.6867 109.26 26.62C109.327 26.5533 109.373 26.4067 109.4 26.18L109.5 24.98ZM110 19.3H106.2L106.06 20.54H109.88L110 19.3ZM119.42 22.84C118.82 23.0533 118.06 23.2667 117.14 23.48C116.087 23.72 115.207 23.9 114.5 24.02L114.28 26C114.213 26.3467 114.373 26.52 114.76 26.52H116.1C116.687 26.52 117.307 26.4533 117.96 26.32C118.627 26.1733 119.227 25.9667 119.76 25.7L119.5 27.7C119.06 27.8867 118.513 28.0333 117.86 28.14C117.207 28.2467 116.54 28.3 115.86 28.3H113.96C113.4 28.3 112.987 28.18 112.72 27.94C112.467 27.7133 112.34 27.3733 112.34 26.92C112.34 26.76 112.347 26.6333 112.36 26.54L113.12 19.58H114.98L114.68 22.24C116.507 21.88 118.153 21.4667 119.62 21L119.42 22.84ZM109.74 22.14H105.9L105.76 23.38H109.64L109.74 22.14ZM138.36 23L137.78 28.54H135.9L136.46 23.26L130.88 24.02L131.04 22.16L136.66 21.38L137.74 11.4H139.62L138.56 21.12L140.66 20.82L140.44 22.72L138.36 23ZM130 22.28L129.46 21.5L128.74 20.46L127.92 28.52H126.02L126.74 21.4C126.033 22.4667 125.24 23.5067 124.36 24.52L122.86 23.4C123.553 22.6933 124.253 21.8933 124.96 21C125.68 20.1067 126.327 19.1867 126.9 18.24H124.14L124.34 16.48H127.22L127.46 14.06C126.153 14.1933 125.253 14.28 124.76 14.32L125 12.54C126.36 12.3933 127.553 12.2533 128.58 12.12C129.607 11.9733 130.653 11.8 131.72 11.6L131.5 13.46C131.033 13.5533 130.34 13.6667 129.42 13.8L129.14 16.48H131.5L131.28 18.24H128.96V18.32C129.84 19.24 130.687 20.2067 131.5 21.22L130 22.28ZM136.1 16.5L132.92 14.56L133.18 12.66L136.34 14.5L136.1 16.5ZM132.26 18.64L132.5 16.78L135.82 18.74L135.58 20.68L132.26 18.64ZM145.58 28.32C144.78 28.2267 144 27.9867 143.24 27.6L143.48 25.76C144 26 144.547 26.1733 145.12 26.28C145.16 26.2933 145.22 26.3 145.3 26.3C145.38 26.3 145.433 26.28 145.46 26.24C145.5 26.1867 145.533 26.1 145.56 25.98L146.08 21.64L143.62 22.38L143.88 20.32C144.68 20.1333 145.493 19.9133 146.32 19.66L146.74 16.18H144.4L144.62 14.34H146.96L147.34 11.18H149.24L148.86 14.34H150.7L150.48 16.18H148.64L148.3 19C148.513 18.9333 148.833 18.82 149.26 18.66L150.22 18.3L150 20.34L148.06 21L147.38 26.84C147.313 27.32 147.147 27.6867 146.88 27.94C146.613 28.2067 146.28 28.34 145.88 28.34C145.747 28.34 145.647 28.3333 145.58 28.32ZM160.54 15.86H156.58L156.3 18.2H158.56C159.24 18.2 159.68 18.4267 159.88 18.88C159.933 19 159.96 19.1533 159.96 19.34C159.96 19.6867 159.853 20.0667 159.64 20.48C158.907 21.9333 157.847 23.3133 156.46 24.62C157.593 25.6867 158.96 26.7333 160.56 27.76L158.62 28.74C157.233 27.8333 156.047 26.86 155.06 25.82C153.807 26.8067 152.267 27.72 150.44 28.56L148.7 27.4C150.647 26.5733 152.36 25.58 153.84 24.42C152.733 23.0333 151.907 21.56 151.36 20H150.58L150.8 18.2H154.36L154.64 15.86H151L151.2 14.02H154.86L155.18 11.24H157.12L156.8 14.02H160.76L160.54 15.86ZM153.28 20C153.747 21.16 154.38 22.24 155.18 23.24C156.073 22.3867 156.8 21.4533 157.36 20.44C157.44 20.2933 157.48 20.1933 157.48 20.14C157.48 20.0867 157.44 20.0533 157.36 20.04C157.293 20.0133 157.193 20 157.06 20H153.28Z" fill="#1D2129"/>
<defs>
<linearGradient id="paint0_linear_0_7" x1="20.0695" y1="1.99609" x2="20.0695" y2="38.0038" gradientUnits="userSpaceOnUse">
<stop stop-color="#4CD263"/>
<stop offset="1" stop-color="#00B42A"/>
</linearGradient>
<clipPath id="clip0_0_7">
<rect width="30.5504" height="36" fill="white" transform="translate(4.79688 2)"/>
</clipPath>
</defs>
</svg>
